<?xml version="1.0" encoding="UTF-8"?>
<!DOCTYPE svg PUBLIC "-//W3C//DTD SVG 1.1//EN" "http://www.w3.org/Graphics/SVG/1.1/DTD/svg11.dtd">
<svg id="main-logo" xmlns="http://www.w3.org/2000/svg" xml:space="preserve" width="366px"
         height="140px" version="1.1"
         style="shape-rendering:geometricPrecision; text-rendering:geometricPrecision; image-rendering:optimizeQuality; fill-rule:evenodd; clip-rule:evenodd"
         viewBox="273 120 70 183" xmlns:xlink="http://www.w3.org/1999/xlink">
             <g id="Layer_x0020_1">
                  <metadata id="CorelCorpID_0Corel-Layer"></metadata>
                 <path class="fil0"
                       d="M167.33 122.56c-20.32,0 -36.8,16.47 -36.8,36.79 0,20.32 16.48,36.8 36.8,36.8l36.79 0 0 -73.59 -36.79 0z"
                       style="fill: rgb(40, 190, 127);"></path>
                 <path class="fil1"
                       d="M233.69 228.1c-20.33,0 -36.8,16.47 -36.8,36.79 0,20.32 16.47,36.79 36.8,36.79l36.79 0 0 -73.58 -36.79 0z"
                       style="fill: rgb(157, 118, 229);"></path>
                 <path class="fil4"
                       d="M240.91 154.48l-36.79 0 0 73.58 36.79 0c20.32,0 36.79,-16.47 36.79,-36.79 0,-20.32 -16.47,-36.79 -36.79,-36.79z"
                       style="fill: rgb(249, 110, 153);"></path>
                 <path class="fil3"
                       d="M130.51 196.17l0 36.79c0,20.32 16.47,36.79 36.79,36.79 20.32,0 36.79,-16.47 36.79,-36.79l0 -36.79 -73.58 0z"
                       style="fill: rgb(255, 152, 128);"></path>
                 <polygon class="letterE"
                          points="162.88,168.34 175.73,168.34 175.73,164.98 167.18,164.98 167.18,160.24 173.68,160.24 173.68,157.1 167.18,157.1 167.18,152.65 175.3,152.65 175.3,149.29 162.88,149.29 "
                          style="fill: rgb(254, 254, 254);"></polygon>
                 <path class="letterU"
                       d="M167.93 241.44c5.14,0 8.05,-2.69 8.05,-7.89l0 -11.46 -4.35 0 0 11.2c0,3.49 -1.12,4.71 -3.68,4.71 -2.61,0 -3.54,-1.38 -3.54,-4.56l0 -11.35 -4.34 0 0 11.62c0,5.06 2.85,7.73 7.86,7.73z"
                       style="fill: rgb(254, 254, 254);"></path>
                 <path class="letterD"
                       d="M231.76 201.45l6.21 0c6.69,0 10.02,-3.81 10.02,-9.52l0 -0.21c0,-5.7 -3.31,-9.33 -9.99,-9.33l-6.24 0 0 19.06zm4.32 -3.36l0 -12.34 1.7 0c4.03,0 5.71,2.11 5.71,6.02l0 0.22c0,3.94 -1.82,6.1 -5.65,6.1l-1.76 0z"
                       style="fill: rgb(254, 254, 254);"></path>
                 <path class="letterC"
                       d="M240.34 273.81c4.69,0 8.07,-2.43 8.56,-7.14l-4.24 0c-0.35,2.45 -2,3.65 -4.37,3.65 -3.15,0 -4.96,-2.29 -4.96,-6.24l0 -0.21c0,-3.94 1.92,-6.29 4.93,-6.29 2.4,0 3.68,1.23 4,3.52l4.42 0c-0.45,-4.69 -3.86,-6.93 -8.45,-6.93 -5.4,0 -9.45,3.94 -9.45,9.73l0 0.21c0,5.86 3.33,9.7 9.56,9.7z"
                       style="fill: rgb(254, 254, 254);"></path>
                 <g id="_2319746464224">
                      <path class="fil2"
                            d="M313.18 177.49l14.89 0 0 -3.89 -9.92 0 0 -5.5 7.54 0 0 -3.65 -7.54 0 0 -5.16 9.42 0 0 -3.89 -14.39 0 0 22.09zm23.3 0.34c2.66,0 4.3,-1.24 5.13,-2.87l0 2.53 4.45 0 0 -16.16 -4.45 0 0 9.48c0,2.39 -1.48,3.56 -3.37,3.56 -1.91,0 -2.81,-1.05 -2.81,-3.24l0 -9.8 -4.45 0 0 10.41c0,4.24 2.35,6.09 5.5,6.09zm13.55 -0.34l4.48 0 0 -8.1c0,-3.08 1.91,-4.17 5.22,-4.14l0 -4.17c-2.63,0.03 -4.2,1.18 -5.22,3.34l0 -3.09 -4.48 0 0 16.16zm19.87 0.34c4.85,0 8.52,-3.24 8.52,-8.34l0 -0.25c0,-5.04 -3.64,-8.28 -8.49,-8.28 -4.85,0 -8.53,3.31 -8.53,8.37l0 0.25c0,5.04 3.68,8.25 8.5,8.25zm0.03 -3.4c-2.53,0 -3.96,-1.85 -3.96,-4.94l0 -0.25c0,-3.09 1.49,-4.88 3.96,-4.88 2.5,0 3.95,1.85 3.95,4.94l0 0.22c0,3.06 -1.45,4.91 -3.95,4.91zm11.5 8.56l4.48 0 0 -7.97c0.84,1.57 2.66,2.81 5.16,2.81 4.02,0 7.05,-3 7.05,-8.34l0 -0.25c0,-5.35 -3.09,-8.28 -7.05,-8.28 -2.38,0 -4.26,1.36 -5.16,2.9l0 -2.53 -4.48 0 0 21.66zm8.31 -8.65c-2.44,0 -3.98,-1.58 -3.98,-4.82l0 -0.25c0,-3.24 1.6,-4.88 3.95,-4.88 2.26,0 3.86,1.61 3.86,4.88l0 0.25c0,3.15 -1.36,4.82 -3.83,4.82zm18.83 3.49c4.42,0 7.2,-1.95 7.72,-5.44l-4.23 0c-0.28,1.36 -1.3,2.26 -3.37,2.26 -2.44,0 -3.89,-1.55 -4.01,-4.24l11.65 0 0 -1.23c0,-5.78 -3.71,-8.22 -7.88,-8.22 -4.7,0 -8.32,3.31 -8.32,8.4l0 0.25c0,5.16 3.56,8.22 8.44,8.22zm-3.83 -10.16c0.34,-2.29 1.7,-3.62 3.71,-3.62 2.13,0 3.36,1.17 3.52,3.62l-7.23 0zm19.04 10.16c2.53,0 3.95,-0.99 4.88,-2.29l0 1.95 4.36 0 0 -10.54c0,-4.38 -2.81,-5.99 -6.77,-5.99 -3.95,0 -6.98,1.7 -7.26,5.53l4.23 0c0.19,-1.39 0.99,-2.29 2.75,-2.29 2.04,0 2.63,1.05 2.63,2.97l0 0.65 -1.82 0c-4.95,0 -8.41,1.42 -8.41,5.19 0,3.4 2.47,4.82 5.41,4.82zm1.33 -3.12c-1.64,0 -2.35,-0.77 -2.35,-1.95 0,-1.73 1.51,-2.28 4.11,-2.28l1.73 0 0 1.36c0,1.79 -1.51,2.87 -3.49,2.87zm11.75 2.78l4.48 0 0 -9.33c0,-2.38 1.45,-3.55 3.36,-3.55 1.98,0 2.85,1.05 2.85,3.24l0 9.64 4.48 0 0 -10.29c0,-4.32 -2.26,-6.24 -5.44,-6.24 -2.69,0 -4.45,1.33 -5.25,2.93l0 -2.56 -4.48 0 0 16.16z"></path>
                     <path class="fil2"
                           d="M313.18 214.58l7.2 0c7.75,0 11.61,-4.41 11.61,-11.03l0 -0.24c0,-6.61 -3.83,-10.82 -11.58,-10.82l-7.23 0 0 22.09zm5 -3.89l0 -14.3 1.98 0c4.66,0 6.61,2.44 6.61,6.98l0 0.25c0,4.57 -2.1,7.07 -6.55,7.07l-2.04 0zm19.35 -14.46c1.46,0 2.57,-1.05 2.57,-2.44 0,-1.39 -1.11,-2.44 -2.57,-2.44 -1.42,0 -2.53,1.05 -2.53,2.44 0,1.39 1.11,2.44 2.53,2.44zm-2.19 18.35l4.45 0 0 -16.15 -4.45 0 0 16.15zm15.73 5.97c5.32,0 8.5,-2.44 8.53,-7.23l0 -14.89 -4.45 0 0 2.41c-0.93,-1.64 -2.5,-2.78 -5.13,-2.78 -4.02,0 -7.11,3.24 -7.11,7.87l0 0.22c0,4.79 3.13,7.72 7.05,7.72 2.38,0 4.29,-1.42 5.19,-2.99l0 2.44c0,2.53 -1.36,3.95 -4.08,3.95 -2.29,0 -3.3,-0.92 -3.58,-2.35l-4.45 0c0.43,3.34 2.81,5.63 8.03,5.63zm0.22 -10.04c-2.23,0 -3.8,-1.67 -3.8,-4.36l0 -0.25c0,-2.66 1.39,-4.45 3.89,-4.45 2.44,0 3.89,1.67 3.89,4.42l0 0.22c0,2.75 -1.64,4.42 -3.98,4.42zm14.59 -14.28c1.45,0 2.57,-1.05 2.57,-2.44 0,-1.39 -1.12,-2.44 -2.57,-2.44 -1.42,0 -2.53,1.05 -2.53,2.44 0,1.39 1.11,2.44 2.53,2.44zm-2.19 18.35l4.45 0 0 -16.15 -4.45 0 0 16.15zm14.46 0.31c1.21,0 2.1,-0.21 2.72,-0.43l0 -3.46c-0.52,0.22 -1.02,0.31 -1.7,0.31 -1.14,0 -1.79,-0.62 -1.79,-1.92l0 -7.78 3.4 0 0 -3.18 -3.4 0 0 -3.5 -4.45 0 0 3.5 -2.07 0 0 3.18 2.07 0 0 8.19c0,3.36 1.82,5.09 5.22,5.09zm10.2 0.03c2.54,0 3.96,-0.99 4.88,-2.28l0 1.94 4.36 0 0 -10.53c0,-4.39 -2.81,-5.99 -6.77,-5.99 -3.95,0 -6.98,1.69 -7.26,5.53l4.24 0c0.18,-1.39 0.98,-2.29 2.75,-2.29 2.04,0 2.62,1.05 2.62,2.97l0 0.64 -1.82 0c-4.94,0 -8.4,1.43 -8.4,5.2 0,3.39 2.47,4.81 5.4,4.81zm1.33 -3.12c-1.64,0 -2.35,-0.77 -2.35,-1.94 0,-1.73 1.52,-2.29 4.11,-2.29l1.73 0 0 1.36c0,1.79 -1.51,2.87 -3.49,2.87zm11.88 2.78l4.44 0 0 -23.48 -4.44 0 0 23.48z"></path>
                     <path class="fil2"
                           d="M322.1 252.02c5.97,0 9.34,-3.12 9.34,-9.14l0 -13.29 -5.04 0 0 12.98c0,4.05 -1.3,5.46 -4.26,5.46 -3.03,0 -4.11,-1.6 -4.11,-5.28l0 -13.16 -5.04 0 0 13.47c0,5.87 3.31,8.96 9.11,8.96zm13.36 -0.34l4.48 0 0 -9.33c0,-2.38 1.46,-3.55 3.37,-3.55 1.98,0 2.85,1.05 2.85,3.24l0 9.64 4.47 0 0 -10.29c0,-4.32 -2.25,-6.24 -5.43,-6.24 -2.69,0 -4.45,1.33 -5.26,2.94l0 -2.57 -4.48 0 0 16.16zm21.33 -18.35c1.46,0 2.57,-1.05 2.57,-2.44 0,-1.39 -1.11,-2.44 -2.57,-2.44 -1.42,0 -2.53,1.05 -2.53,2.44 0,1.39 1.11,2.44 2.53,2.44zm-2.19 18.35l4.45 0 0 -16.16 -4.45 0 0 16.16zm12.92 0l5.04 0 5.86 -16.16 -4.32 0 -3.83 11.56 -3.86 -11.56 -4.79 0 5.9 16.16zm20.06 0.34c4.42,0 7.2,-1.94 7.72,-5.44l-4.23 0c-0.28,1.36 -1.29,2.26 -3.36,2.26 -2.45,0 -3.9,-1.54 -4.02,-4.24l11.65 0 0 -1.23c0,-5.78 -3.71,-8.22 -7.88,-8.22 -4.7,0 -8.31,3.31 -8.31,8.41l0 0.24c0,5.16 3.55,8.22 8.43,8.22zm-3.83 -10.16c0.34,-2.29 1.7,-3.62 3.71,-3.62 2.13,0 3.36,1.18 3.52,3.62l-7.23 0zm14.53 9.82l4.48 0 0 -8.09c0,-3.09 1.91,-4.17 5.22,-4.14l0 -4.18c-2.63,0.04 -4.2,1.18 -5.22,3.34l0 -3.09 -4.48 0 0 16.16zm22.99 0.34c5.44,0 9.36,-2.81 9.92,-8.28l-4.91 0c-0.41,2.84 -2.32,4.23 -5.07,4.23 -3.65,0 -5.75,-2.65 -5.75,-7.23l0 -0.24c0,-4.57 2.23,-7.29 5.72,-7.29 2.78,0 4.26,1.42 4.63,4.07l5.13 0c-0.52,-5.44 -4.48,-8.03 -9.79,-8.03 -6.27,0 -10.97,4.57 -10.97,11.28l0 0.25c0,6.79 3.86,11.24 11.09,11.24zm15.09 -18.69c1.45,0 2.57,-1.05 2.57,-2.44 0,-1.39 -1.12,-2.44 -2.57,-2.44 -1.42,0 -2.53,1.05 -2.53,2.44 0,1.39 1.11,2.44 2.53,2.44zm-2.19 18.35l4.45 0 0 -16.16 -4.45 0 0 16.16zm14.46 0.31c1.21,0 2.1,-0.22 2.72,-0.43l0 -3.46c-0.52,0.21 -1.02,0.31 -1.7,0.31 -1.14,0 -1.79,-0.62 -1.79,-1.92l0 -7.78 3.4 0 0 -3.19 -3.4 0 0 -3.49 -4.45 0 0 3.49 -2.07 0 0 3.19 2.07 0 0 8.18c0,3.37 1.82,5.1 5.22,5.1zm7.79 5.19l4.33 0 8.74 -21.66 -4.29 0 -3.62 9.7 -3.92 -9.7 -4.82 0 6.43 14.52 -2.85 7.14z"></path>
                  </g>
             </g>
</svg>
