<svg xmlns="http://www.w3.org/2000/svg" width="195.698" height="196.326" viewBox="0 0 195.698 196.326">
  <g id="Group_208" data-name="Group 208" transform="translate(10752.918 -48.631)">
    <rect id="Rectangle_188" data-name="Rectangle 188" width="195.698" height="196.326" transform="translate(-10752.918 48.631)" fill="none"/>
    <g id="EDUC_Course_Catalogue_1" transform="translate(-10752.918 92.898)">
      <g id="Group_187" data-name="Group 187" transform="translate(0 0)">
        <g id="Group_179" data-name="Group 179" transform="translate(0.015)">
          <path id="Path_46" data-name="Path 46" d="M-519.225-1082.691a22.142,22.142,0,0,0-22.143,22.141,22.143,22.143,0,0,0,22.143,22.143h22.143v-44.283Z" transform="translate(541.368 1082.691)" fill="#28be7f"/>
        </g>
        <g id="Group_180" data-name="Group 180" transform="translate(39.951 63.51)">
          <path id="Path_47" data-name="Path 47" d="M-519.225-1082.691a22.143,22.143,0,0,0-22.143,22.143,22.142,22.142,0,0,0,22.143,22.141h22.143v-44.283Z" transform="translate(541.368 1082.691)" fill="#9d76e5"/>
        </g>
        <g id="Group_181" data-name="Group 181" transform="translate(44.3 19.208)">
          <path id="Path_48" data-name="Path 48" d="M-519.183-1082.691h-22.141v44.283h22.141a22.141,22.141,0,0,0,22.143-22.141,22.143,22.143,0,0,0-22.143-22.143" transform="translate(541.323 1082.691)" fill="#f96e99"/>
        </g>
        <g id="Group_182" data-name="Group 182" transform="translate(0 44.295)">
          <path id="Path_49" data-name="Path 49" d="M0-1082.691v22.141a22.142,22.142,0,0,0,22.143,22.143,22.142,22.142,0,0,0,22.141-22.143v-22.141Z" transform="translate(0 1082.691)" fill="#ff9880"/>
        </g>
        <g id="Group_183" data-name="Group 183" transform="translate(19.485 16.083)">
          <path id="Path_50" data-name="Path 50" d="M0,11.466H7.729V9.446H2.584V6.592H6.5V4.7H2.584V2.022h4.89V0H0Z" fill="#fff"/>
        </g>
        <g id="Group_184" data-name="Group 184" transform="translate(17.79 59.897)">
          <path id="Path_51" data-name="Path 51" d="M-110.916,11.643c3.095,0,4.843-1.619,4.843-4.746V0h-2.614V6.736c0,2.1-.675,2.837-2.213,2.837-1.572,0-2.134-.833-2.134-2.742V0h-2.612V6.992c0,3.046,1.715,4.651,4.73,4.651" transform="translate(115.646)" fill="#fff"/>
        </g>
        <g id="Group_185" data-name="Group 185" transform="translate(60.935 36.007)">
          <path id="Path_52" data-name="Path 52" d="M0,11.466H3.737c4.025,0,6.029-2.292,6.029-5.725V5.613C9.766,2.181,7.778,0,3.753,0H0Zm2.6-2.02V2.02H3.625c2.42,0,3.431,1.268,3.431,3.624v.13c0,2.373-1.092,3.672-3.4,3.672Z" fill="#fff"/>
        </g>
        <g id="Group_186" data-name="Group 186" transform="translate(59.367 80.178)">
          <path id="Path_53" data-name="Path 53" d="M-134.964,11.819c2.823,0,4.86-1.461,5.147-4.3h-2.549a2.406,2.406,0,0,1-2.63,2.2c-1.891,0-2.981-1.38-2.981-3.753V5.838c0-2.375,1.153-3.785,2.965-3.785a2.189,2.189,0,0,1,2.407,2.118h2.661C-130.218,1.348-132.269,0-135.027,0a5.559,5.559,0,0,0-5.693,5.855v.128c0,3.526,2,5.837,5.756,5.837" transform="translate(140.719 0)" fill="#fff"/>
        </g>
      </g>
      <g id="Group_207" data-name="Group 207" transform="translate(109.369 20.573)">
        <g id="Group_188" data-name="Group 188" transform="translate(0.23 0.177)">
          <path id="Path_54" data-name="Path 54" d="M27.3-302.148v-12.885h8.685v2.251H30.03v3.066h5.512v2.251H30.03v3.066H36.02v2.251Z" transform="translate(-27.3 315.033)" fill="#3d3d3b"/>
        </g>
        <g id="Group_189" data-name="Group 189" transform="translate(10.91 0.177)">
          <path id="Path_55" data-name="Path 55" d="M31.873-302.148H27.3v-12.885h4.608a6.877,6.877,0,0,1,3.35.762,5.216,5.216,0,0,1,2.162,2.216,7.213,7.213,0,0,1,.762,3.456,7.262,7.262,0,0,1-.762,3.456,5.216,5.216,0,0,1-2.162,2.215A7.022,7.022,0,0,1,31.873-302.148Zm-1.843-2.34h1.737a4.5,4.5,0,0,0,2.038-.425,2.792,2.792,0,0,0,1.241-1.347,5.54,5.54,0,0,0,.408-2.34,5.541,5.541,0,0,0-.408-2.34,2.751,2.751,0,0,0-1.241-1.329,4.441,4.441,0,0,0-2.038-.443H30.03Z" transform="translate(-27.3 315.033)" fill="#3d3d3b"/>
        </g>
        <g id="Group_190" data-name="Group 190" transform="translate(23.623 0.177)">
          <path id="Path_56" data-name="Path 56" d="M35.258-315.033h2.729v8.366a4.395,4.395,0,0,1-.674,2.464,4.435,4.435,0,0,1-1.861,1.648,6.324,6.324,0,0,1-2.8.585,6.4,6.4,0,0,1-2.818-.585,4.435,4.435,0,0,1-1.861-1.648,4.542,4.542,0,0,1-.674-2.464v-8.366H30.03v8.135a2.661,2.661,0,0,0,.319,1.312,2.507,2.507,0,0,0,.922.9,2.845,2.845,0,0,0,1.382.319,2.845,2.845,0,0,0,1.382-.319,2.457,2.457,0,0,0,.9-.9,2.661,2.661,0,0,0,.319-1.312Z" transform="translate(-27.3 315.033)" fill="#3d3d3b"/>
        </g>
        <g id="Group_191" data-name="Group 191" transform="translate(36.143)">
          <path id="Path_57" data-name="Path 57" d="M33.276-314.688H30.511a2.259,2.259,0,0,0-.3-.939,2.4,2.4,0,0,0-.6-.727,2.68,2.68,0,0,0-.833-.443,3.2,3.2,0,0,0-1.028-.16,3.044,3.044,0,0,0-1.755.5,3.152,3.152,0,0,0-1.152,1.436,5.767,5.767,0,0,0-.408,2.269,5.6,5.6,0,0,0,.425,2.322,3.082,3.082,0,0,0,1.152,1.418,3.1,3.1,0,0,0,1.719.479,3.759,3.759,0,0,0,1.01-.142,3.074,3.074,0,0,0,.833-.425,2.493,2.493,0,0,0,.6-.691,2.484,2.484,0,0,0,.337-.922l2.765.018a4.973,4.973,0,0,1-.532,1.719,5.56,5.56,0,0,1-1.134,1.453,5.141,5.141,0,0,1-1.7,1.028,6.276,6.276,0,0,1-2.233.372,6.133,6.133,0,0,1-3.084-.78,5.382,5.382,0,0,1-2.127-2.269,7.422,7.422,0,0,1-.8-3.58,7.47,7.47,0,0,1,.8-3.58,5.414,5.414,0,0,1,2.162-2.251,5.873,5.873,0,0,1,3.049-.78,6.712,6.712,0,0,1,2.091.319,5.228,5.228,0,0,1,1.7.9,4.88,4.88,0,0,1,1.205,1.471A5.422,5.422,0,0,1,33.276-314.688Z" transform="translate(-21.667 319.367)" fill="#3d3d3b"/>
        </g>
        <g id="Group_192" data-name="Group 192" transform="translate(0 21.814)">
          <path id="Path_58" data-name="Path 58" d="M33.276-314.688H30.511a2.259,2.259,0,0,0-.3-.939,2.4,2.4,0,0,0-.6-.727,2.68,2.68,0,0,0-.833-.443,3.2,3.2,0,0,0-1.028-.16,3.044,3.044,0,0,0-1.755.5,3.152,3.152,0,0,0-1.152,1.436,5.767,5.767,0,0,0-.408,2.269,5.6,5.6,0,0,0,.425,2.322,3.082,3.082,0,0,0,1.152,1.418,3.1,3.1,0,0,0,1.719.479,3.759,3.759,0,0,0,1.01-.142,3.074,3.074,0,0,0,.833-.425,2.493,2.493,0,0,0,.6-.691,2.484,2.484,0,0,0,.337-.922l2.765.018a4.973,4.973,0,0,1-.532,1.719,5.56,5.56,0,0,1-1.134,1.453,5.141,5.141,0,0,1-1.7,1.028,6.276,6.276,0,0,1-2.233.372,6.133,6.133,0,0,1-3.084-.78,5.382,5.382,0,0,1-2.127-2.269,7.422,7.422,0,0,1-.8-3.58,7.47,7.47,0,0,1,.8-3.58,5.414,5.414,0,0,1,2.162-2.251,5.873,5.873,0,0,1,3.049-.78,6.712,6.712,0,0,1,2.091.319,5.228,5.228,0,0,1,1.7.9,4.88,4.88,0,0,1,1.205,1.471A5.422,5.422,0,0,1,33.276-314.688Z" transform="translate(-21.667 319.367)" fill="#3d3d3b"/>
        </g>
        <g id="Group_193" data-name="Group 193" transform="translate(12.941 25.075)">
          <path id="Path_59" data-name="Path 59" d="M21.234-229.637a4.85,4.85,0,0,1-2.535-.638,4.213,4.213,0,0,1-1.648-1.737,5.662,5.662,0,0,1-.585-2.623,5.662,5.662,0,0,1,.585-2.623A4.213,4.213,0,0,1,18.7-239a4.85,4.85,0,0,1,2.535-.638,4.85,4.85,0,0,1,2.535.638,4.213,4.213,0,0,1,1.648,1.737,5.888,5.888,0,0,1,.567,2.623,5.888,5.888,0,0,1-.567,2.623,4.213,4.213,0,0,1-1.648,1.737A4.85,4.85,0,0,1,21.234-229.637Zm.018-2.091a1.618,1.618,0,0,0,1.1-.372,2.356,2.356,0,0,0,.691-1.046,4.89,4.89,0,0,0,.23-1.507,4.977,4.977,0,0,0-.23-1.507,2.4,2.4,0,0,0-.691-1.028,1.546,1.546,0,0,0-1.1-.39,1.636,1.636,0,0,0-1.134.39,2.4,2.4,0,0,0-.691,1.028,4.482,4.482,0,0,0-.23,1.507,4.411,4.411,0,0,0,.23,1.507,2.356,2.356,0,0,0,.691,1.046A1.714,1.714,0,0,0,21.252-231.729Z" transform="translate(-16.467 239.633)" fill="#3d3d3b"/>
        </g>
        <g id="Group_194" data-name="Group 194" transform="translate(24.029 25.217)">
          <path id="Path_60" data-name="Path 60" d="M32.2-230.619v-5.548H34.88v9.66H32.31v-1.755h-.089a2.869,2.869,0,0,1-1.1,1.365,3.225,3.225,0,0,1-1.843.514,3.165,3.165,0,0,1-1.7-.443,2.893,2.893,0,0,1-1.152-1.241,4.451,4.451,0,0,1-.425-1.95v-6.15h2.694v5.672a1.908,1.908,0,0,0,.461,1.347,1.515,1.515,0,0,0,1.205.5,1.994,1.994,0,0,0,.9-.213,1.8,1.8,0,0,0,.691-.674A2.036,2.036,0,0,0,32.2-230.619Z" transform="translate(-26 236.167)" fill="#3d3d3b"/>
        </g>
        <g id="Group_195" data-name="Group 195" transform="translate(34.873 25.075)">
          <path id="Path_61" data-name="Path 61" d="M26-229.832v-9.66h2.605v1.684h.106a2.435,2.435,0,0,1,.886-1.365,2.248,2.248,0,0,1,1.436-.461,3.712,3.712,0,0,1,.425.018,2.139,2.139,0,0,1,.408.071v2.375a2.752,2.752,0,0,0-.514-.089,4,4,0,0,0-.62-.053,2.039,2.039,0,0,0-1.046.266,1.816,1.816,0,0,0-.727.691,2.086,2.086,0,0,0-.266,1.046v5.477Z" transform="translate(-26 239.633)" fill="#3d3d3b"/>
        </g>
        <g id="Group_196" data-name="Group 196" transform="translate(41.515 25.075)">
          <path id="Path_62" data-name="Path 62" d="M24.072-236.744l-2.446.16a1.5,1.5,0,0,0-.284-.585,1.573,1.573,0,0,0-.532-.408,2.237,2.237,0,0,0-.815-.142,2.122,2.122,0,0,0-1.046.248.8.8,0,0,0-.425.709.721.721,0,0,0,.284.585,2.053,2.053,0,0,0,.939.372l1.755.354a4.409,4.409,0,0,1,2.109.939,2.192,2.192,0,0,1,.691,1.684,2.632,2.632,0,0,1-.567,1.666,3.567,3.567,0,0,1-1.524,1.117,5.743,5.743,0,0,1-2.215.408,5.151,5.151,0,0,1-3.066-.815,3.163,3.163,0,0,1-1.329-2.18l2.641-.142a1.309,1.309,0,0,0,.585.886,1.984,1.984,0,0,0,1.17.319,2.1,2.1,0,0,0,1.134-.284.817.817,0,0,0,.443-.709.741.741,0,0,0-.319-.6,2.167,2.167,0,0,0-.922-.354l-1.684-.337a4.046,4.046,0,0,1-2.091-.975,2.46,2.46,0,0,1-.691-1.79,2.554,2.554,0,0,1,.5-1.6,3.161,3.161,0,0,1,1.436-1.046,5.752,5.752,0,0,1,2.162-.372,4.817,4.817,0,0,1,2.889.78A2.99,2.99,0,0,1,24.072-236.744Z" transform="translate(-15.6 239.633)" fill="#3d3d3b"/>
        </g>
        <g id="Group_197" data-name="Group 197" transform="translate(51.33 25.075)">
          <path id="Path_63" data-name="Path 63" d="M21.27-229.637a5.155,5.155,0,0,1-2.57-.62,4.064,4.064,0,0,1-1.648-1.719,5.635,5.635,0,0,1-.585-2.641,5.611,5.611,0,0,1,.585-2.623A4.449,4.449,0,0,1,18.682-239a4.7,4.7,0,0,1,2.481-.638,5.009,5.009,0,0,1,1.79.319,3.8,3.8,0,0,1,1.436.9,4.032,4.032,0,0,1,.975,1.542,6.055,6.055,0,0,1,.337,2.145v.744H17.548v-1.666h5.636a2.15,2.15,0,0,0-.248-1.028,1.9,1.9,0,0,0-.709-.691,1.93,1.93,0,0,0-1.028-.266,2.182,2.182,0,0,0-1.081.284,2.243,2.243,0,0,0-.727.744,2.134,2.134,0,0,0-.266,1.046v1.577a2.672,2.672,0,0,0,.266,1.241,1.884,1.884,0,0,0,.762.815,2.358,2.358,0,0,0,1.152.284,3.042,3.042,0,0,0,.833-.124,1.486,1.486,0,0,0,.62-.39,1.58,1.58,0,0,0,.408-.6l2.481.16a3.392,3.392,0,0,1-.762,1.56,3.862,3.862,0,0,1-1.507,1.028A5.533,5.533,0,0,1,21.27-229.637Z" transform="translate(-16.467 239.633)" fill="#3d3d3b"/>
        </g>
        <g id="Group_198" data-name="Group 198" transform="translate(0 43.628)">
          <path id="Path_64" data-name="Path 64" d="M33.276-314.688H30.511a2.259,2.259,0,0,0-.3-.939,2.4,2.4,0,0,0-.6-.727,2.68,2.68,0,0,0-.833-.443,3.2,3.2,0,0,0-1.028-.16,3.044,3.044,0,0,0-1.755.5,3.152,3.152,0,0,0-1.152,1.436,5.767,5.767,0,0,0-.408,2.269,5.6,5.6,0,0,0,.425,2.322,3.082,3.082,0,0,0,1.152,1.418,3.1,3.1,0,0,0,1.719.479,3.759,3.759,0,0,0,1.01-.142,3.074,3.074,0,0,0,.833-.425,2.493,2.493,0,0,0,.6-.691,2.484,2.484,0,0,0,.337-.922l2.765.018a4.973,4.973,0,0,1-.532,1.719,5.56,5.56,0,0,1-1.134,1.453,5.141,5.141,0,0,1-1.7,1.028,6.276,6.276,0,0,1-2.233.372,6.133,6.133,0,0,1-3.084-.78,5.382,5.382,0,0,1-2.127-2.269,7.422,7.422,0,0,1-.8-3.58,7.47,7.47,0,0,1,.8-3.58,5.414,5.414,0,0,1,2.162-2.251,5.873,5.873,0,0,1,3.049-.78,6.712,6.712,0,0,1,2.091.319,5.228,5.228,0,0,1,1.7.9,4.88,4.88,0,0,1,1.205,1.471A5.422,5.422,0,0,1,33.276-314.688Z" transform="translate(-21.667 319.367)" fill="#3d3d3b"/>
        </g>
        <g id="Group_199" data-name="Group 199" transform="translate(12.888 46.889)">
          <path id="Path_65" data-name="Path 65" d="M18.375-229.655a4.022,4.022,0,0,1-1.648-.319,2.648,2.648,0,0,1-1.152-.957,2.959,2.959,0,0,1-.408-1.6,2.882,2.882,0,0,1,.284-1.365,2.557,2.557,0,0,1,.815-.868,4.005,4.005,0,0,1,1.152-.514,8.659,8.659,0,0,1,1.382-.23c.549-.071,1.01-.124,1.347-.177a1.94,1.94,0,0,0,.762-.23.563.563,0,0,0,.23-.461v-.035a1.2,1.2,0,0,0-.372-.939,1.588,1.588,0,0,0-1.063-.319,1.89,1.89,0,0,0-1.152.319,1.489,1.489,0,0,0-.567.8l-2.481-.213a3.417,3.417,0,0,1,.744-1.524,3.66,3.66,0,0,1,1.436-.993,5.511,5.511,0,0,1,2.038-.355,6.337,6.337,0,0,1,1.542.195,4.009,4.009,0,0,1,1.312.585,2.745,2.745,0,0,1,.9,1.01,3.076,3.076,0,0,1,.337,1.489v6.522H21.281v-1.347h-.089a2.432,2.432,0,0,1-.62.8,2.553,2.553,0,0,1-.939.532A3.415,3.415,0,0,1,18.375-229.655Zm.762-1.843a2.452,2.452,0,0,0,1.046-.23,1.775,1.775,0,0,0,.709-.638,1.692,1.692,0,0,0,.266-.922v-1.028a2.015,2.015,0,0,1-.337.16c-.16.035-.319.071-.5.106s-.354.071-.549.106a3.429,3.429,0,0,0-.479.071,2.728,2.728,0,0,0-.833.213,1.441,1.441,0,0,0-.549.408,1.051,1.051,0,0,0-.195.638.986.986,0,0,0,.408.833A1.661,1.661,0,0,0,19.137-231.5Z" transform="translate(-15.167 239.633)" fill="#3d3d3b"/>
        </g>
        <g id="Group_200" data-name="Group 200" transform="translate(22.764 44.709)">
          <path id="Path_66" data-name="Path 66" d="M15.347-290.612v2H9.533v-2Zm-4.484-2.322h2.676v9a1.326,1.326,0,0,0,.106.585.692.692,0,0,0,.319.284,1.353,1.353,0,0,0,.479.089,2.648,2.648,0,0,0,.372-.035,1.2,1.2,0,0,1,.3-.053l.408,1.985c-.124.053-.319.089-.567.159a4.021,4.021,0,0,1-.886.089,3.88,3.88,0,0,1-1.684-.248A2.351,2.351,0,0,1,11.253-282a2.711,2.711,0,0,1-.39-1.577Z" transform="translate(-9.533 292.933)" fill="#3d3d3b"/>
        </g>
        <g id="Group_201" data-name="Group 201" transform="translate(29.703 46.889)">
          <path id="Path_67" data-name="Path 67" d="M18.375-229.655a4.022,4.022,0,0,1-1.648-.319,2.648,2.648,0,0,1-1.152-.957,2.959,2.959,0,0,1-.408-1.6,2.882,2.882,0,0,1,.284-1.365,2.557,2.557,0,0,1,.815-.868,4.005,4.005,0,0,1,1.152-.514,8.659,8.659,0,0,1,1.382-.23c.549-.071,1.01-.124,1.347-.177a1.94,1.94,0,0,0,.762-.23.563.563,0,0,0,.23-.461v-.035a1.2,1.2,0,0,0-.372-.939,1.588,1.588,0,0,0-1.063-.319,1.89,1.89,0,0,0-1.152.319,1.489,1.489,0,0,0-.567.8l-2.481-.213a3.417,3.417,0,0,1,.744-1.524,3.66,3.66,0,0,1,1.436-.993,5.511,5.511,0,0,1,2.038-.355,6.337,6.337,0,0,1,1.542.195,4.009,4.009,0,0,1,1.312.585,2.745,2.745,0,0,1,.9,1.01,3.076,3.076,0,0,1,.337,1.489v6.522H21.281v-1.347h-.089a2.432,2.432,0,0,1-.62.8,2.553,2.553,0,0,1-.939.532A3.415,3.415,0,0,1,18.375-229.655Zm.762-1.843a2.452,2.452,0,0,0,1.046-.23,1.775,1.775,0,0,0,.709-.638,1.692,1.692,0,0,0,.266-.922v-1.028a2.015,2.015,0,0,1-.337.16c-.16.035-.319.071-.5.106s-.354.071-.549.106a3.429,3.429,0,0,0-.479.071,2.728,2.728,0,0,0-.833.213,1.441,1.441,0,0,0-.549.408,1.051,1.051,0,0,0-.195.638.986.986,0,0,0,.408.833A1.661,1.661,0,0,0,19.137-231.5Z" transform="translate(-15.167 239.633)" fill="#3d3d3b"/>
        </g>
        <g id="Group_202" data-name="Group 202" transform="translate(40.253 43.805)">
          <rect id="Rectangle_189" data-name="Rectangle 189" width="2.676" height="12.885" transform="translate(0 0)" fill="#3d3d3b"/>
        </g>
        <g id="Group_203" data-name="Group 203" transform="translate(44.507 46.889)">
          <path id="Path_68" data-name="Path 68" d="M21.234-229.637a4.85,4.85,0,0,1-2.535-.638,4.213,4.213,0,0,1-1.648-1.737,5.662,5.662,0,0,1-.585-2.623,5.662,5.662,0,0,1,.585-2.623A4.213,4.213,0,0,1,18.7-239a4.85,4.85,0,0,1,2.535-.638,4.85,4.85,0,0,1,2.535.638,4.213,4.213,0,0,1,1.648,1.737,5.888,5.888,0,0,1,.567,2.623,5.888,5.888,0,0,1-.567,2.623,4.213,4.213,0,0,1-1.648,1.737A4.85,4.85,0,0,1,21.234-229.637Zm.018-2.091a1.618,1.618,0,0,0,1.1-.372,2.356,2.356,0,0,0,.691-1.046,4.89,4.89,0,0,0,.23-1.507,4.977,4.977,0,0,0-.23-1.507,2.4,2.4,0,0,0-.691-1.028,1.546,1.546,0,0,0-1.1-.39,1.636,1.636,0,0,0-1.134.39,2.4,2.4,0,0,0-.691,1.028,4.482,4.482,0,0,0-.23,1.507,4.411,4.411,0,0,0,.23,1.507,2.356,2.356,0,0,0,.691,1.046A1.714,1.714,0,0,0,21.252-231.729Z" transform="translate(-16.467 239.633)" fill="#3d3d3b"/>
        </g>
        <g id="Group_204" data-name="Group 204" transform="translate(55.242 46.889)">
          <path id="Path_69" data-name="Path 69" d="M22.048-226.075a6.027,6.027,0,0,1-2.233-.354,3.829,3.829,0,0,1-1.471-.939,2.871,2.871,0,0,1-.709-1.329l2.481-.337a1.517,1.517,0,0,0,.354.5,1.788,1.788,0,0,0,.656.39,2.708,2.708,0,0,0,.993.16,2.3,2.3,0,0,0,1.436-.425,1.53,1.53,0,0,0,.567-1.365v-1.772h-.106a2.468,2.468,0,0,1-.532.762,2.35,2.35,0,0,1-.9.585,3.366,3.366,0,0,1-1.329.23,3.865,3.865,0,0,1-1.967-.5,3.584,3.584,0,0,1-1.418-1.56,5.867,5.867,0,0,1-.532-2.659,6.326,6.326,0,0,1,.532-2.747,3.867,3.867,0,0,1,1.436-1.648,3.718,3.718,0,0,1,1.95-.549,3.113,3.113,0,0,1,1.365.284,2.861,2.861,0,0,1,.886.674,4.625,4.625,0,0,1,.514.8h.106v-1.613H26.78v9.748a3.334,3.334,0,0,1-.6,2.02,3.687,3.687,0,0,1-1.684,1.241A6.557,6.557,0,0,1,22.048-226.075Zm.053-5.9a1.84,1.84,0,0,0,1.1-.337,1.959,1.959,0,0,0,.691-.922,4.053,4.053,0,0,0,.248-1.471,4.2,4.2,0,0,0-.23-1.471,2.25,2.25,0,0,0-.709-.975,1.727,1.727,0,0,0-1.1-.337,1.789,1.789,0,0,0-1.117.354,2.19,2.19,0,0,0-.674.975,4.1,4.1,0,0,0-.23,1.453,3.971,3.971,0,0,0,.23,1.453,2.106,2.106,0,0,0,.691.939A1.84,1.84,0,0,0,22.1-231.977Z" transform="translate(-17.333 239.633)" fill="#3d3d3b"/>
        </g>
        <g id="Group_205" data-name="Group 205" transform="translate(66.641 47.031)">
          <path id="Path_70" data-name="Path 70" d="M32.2-230.619v-5.548H34.88v9.66H32.31v-1.755h-.089a2.869,2.869,0,0,1-1.1,1.365,3.225,3.225,0,0,1-1.843.514,3.165,3.165,0,0,1-1.7-.443,2.893,2.893,0,0,1-1.152-1.241,4.451,4.451,0,0,1-.425-1.95v-6.15h2.694v5.672a1.908,1.908,0,0,0,.461,1.347,1.515,1.515,0,0,0,1.205.5,1.994,1.994,0,0,0,.9-.213,1.8,1.8,0,0,0,.691-.674A2.036,2.036,0,0,0,32.2-230.619Z" transform="translate(-26 236.167)" fill="#3d3d3b"/>
        </g>
        <g id="Group_206" data-name="Group 206" transform="translate(77.095 46.889)">
          <path id="Path_71" data-name="Path 71" d="M21.27-229.637a5.155,5.155,0,0,1-2.57-.62,4.064,4.064,0,0,1-1.648-1.719,5.635,5.635,0,0,1-.585-2.641,5.611,5.611,0,0,1,.585-2.623A4.449,4.449,0,0,1,18.682-239a4.7,4.7,0,0,1,2.481-.638,5.009,5.009,0,0,1,1.79.319,3.8,3.8,0,0,1,1.436.9,4.032,4.032,0,0,1,.975,1.542,6.055,6.055,0,0,1,.337,2.145v.744H17.548v-1.666h5.636a2.15,2.15,0,0,0-.248-1.028,1.9,1.9,0,0,0-.709-.691,1.93,1.93,0,0,0-1.028-.266,2.182,2.182,0,0,0-1.081.284,2.243,2.243,0,0,0-.727.744,2.134,2.134,0,0,0-.266,1.046v1.577a2.672,2.672,0,0,0,.266,1.241,1.884,1.884,0,0,0,.762.815,2.358,2.358,0,0,0,1.152.284,3.042,3.042,0,0,0,.833-.124,1.486,1.486,0,0,0,.62-.39,1.58,1.58,0,0,0,.408-.6l2.481.16a3.392,3.392,0,0,1-.762,1.56,3.862,3.862,0,0,1-1.507,1.028A5.533,5.533,0,0,1,21.27-229.637Z" transform="translate(-16.467 239.633)" fill="#3d3d3b"/>
        </g>
      </g>
    </g>
  </g>
</svg>
