<?xml version="1.0" encoding="UTF-8"?>
<!DOCTYPE svg PUBLIC "-//W3C//DTD SVG 1.1//EN" "http://www.w3.org/Graphics/SVG/1.1/DTD/svg11.dtd">
<!-- Creator: CorelDRAW 2017 -->
<svg xmlns="http://www.w3.org/2000/svg" xml:space="preserve" width="876px" height="591px" version="1.1" style="shape-rendering:geometricPrecision; text-rendering:geometricPrecision; image-rendering:optimizeQuality; fill-rule:evenodd; clip-rule:evenodd"
viewBox="0 0 876 591"
 xmlns:xlink="http://www.w3.org/1999/xlink">
 <defs>
  <style type="text/css">
   <![CDATA[
    .fil1 {fill:#003399}
    .fil0 {fill:#FFCC00}
   ]]>
  </style>
 </defs>
 <g id="Layer_x0020_1">
  <metadata id="CorelCorpID_0Corel-Layer"/>
  <rect class="fil0" x="60.86" y="36.03" width="722.44" height="515.53"/>
  <path class="fil1" d="M-0.24 0.25l876.48 0 0 590.5 -876.48 0 0 -590.5zm350.16 124.34l-4.4 -12.09 -2.82 -7.75 -2.81 7.75 -4.44 12.09 -13.5 0.22 -9.18 0.16 7.43 5.37 10.66 7.66 -3.81 12.09 -2.66 8.22 7.16 -4.75 11.15 -7.34 11.13 7.34 7.12 4.75 -2.59 -8.22 -3.84 -12.09 10.62 -7.66 7.5 -5.37 -9.22 -0.16 -13.5 -0.22 0 0zm-69.53 68.5l-4.34 -12.03 -2.85 -7.72 -2.84 7.72 -4.41 12.03 -13.53 0.25 -9.12 0.16 7.47 5.41 10.59 7.68 -3.84 12.03 -2.6 8.22 7.1 -4.72 11.15 -7.37 11.19 7.37 7.09 4.72 -2.59 -8.22 -3.84 -12.03 10.65 -7.68 7.44 -5.41 -9.16 -0.16 -13.56 -0.25zm-22.06 124.72l7.19 4.75 -2.63 -8.25 -3.81 -12.06 10.59 -7.69 7.47 -5.34 -9.16 -0.19 -13.5 -0.22 -4.43 -12.03 -2.82 -7.75 -2.84 7.75 -4.44 12.03 -13.53 0.22 -9.12 0.19 7.4 5.34 10.66 7.69 -3.84 12.06 -2.6 8.25 7.13 -4.75 11.19 -7.37 11.09 7.37 0 0zm21.75 65.44l-4.44 -12 -2.78 -7.75 -2.87 7.75 -4.41 12 -13.5 0.31 -9.19 0.19 7.47 5.31 10.63 7.72 -3.85 12.06 -2.62 8.13 7.12 -4.63 11.16 -7.37 11.16 7.37 7.12 4.69 -2.62 -8.19 -3.79 -12.06 10.63 -7.72 7.41 -5.31 -9.13 -0.19 -13.5 -0.31 0 0zm69 69.16l-4.38 -12.1 -2.84 -7.72 -2.87 7.72 -4.38 12.1 -13.53 0.21 -9.19 0.22 7.5 5.35 10.6 7.68 -3.79 12.03 -2.65 8.22 7.09 -4.68 11.22 -7.38 11.06 7.38 7.22 4.68 -2.65 -8.22 -3.82 -12.03 10.63 -7.68 7.5 -5.35 -9.19 -0.22 -13.53 -0.21 0 0zm96.28 25.53l-4.41 -12 -2.84 -7.78 -2.81 7.78 -4.41 12 -13.56 0.28 -9.19 0.19 7.47 5.4 10.69 7.63 -3.91 12.06 -2.53 8.25 7.09 -4.75 11.16 -7.41 11.16 7.41 7.12 4.75 -2.59 -8.25 -3.88 -12.06 10.63 -7.63 7.47 -5.4 -9.13 -0.19 -13.53 -0.28 0 0zm95.53 -25.07l-4.44 -12.06 -2.81 -7.72 -2.84 7.72 -4.38 12.06 -13.53 0.32 -9.19 0.15 7.5 5.35 10.63 7.65 -3.84 12.07 -2.6 8.21 7.1 -4.68 11.15 -7.38 11.16 7.38 7.09 4.68 -2.53 -8.21 -3.84 -12.07 10.56 -7.65 7.47 -5.35 -9.12 -0.15 -13.53 -0.32 -0.01 0zm69.41 -68.78l-4.44 -12.06 -2.81 -7.69 -2.81 7.69 -4.44 12.06 -13.53 0.25 -9.13 0.19 7.5 5.38 10.57 7.65 -3.82 12.1 -2.59 8.18 7.09 -4.72 11.16 -7.37 11.16 7.37 7.09 4.72 -2.63 -8.18 -3.78 -12.1 10.63 -7.65 7.47 -5.38 -9.16 -0.19 -13.53 -0.25 0 0zm48.4 -94.68l-9.18 -0.19 -13.5 -0.25 -4.47 -12.06 -2.85 -7.69 -2.81 7.69 -4.41 12.06 -13.5 0.25 -9.12 0.19 7.44 5.37 10.65 7.66 -3.87 12.06 -2.66 8.22 7.22 -4.75 11.06 -7.35 11.22 7.35 7.13 4.75 -2.63 -8.22 -3.84 -12.06 10.65 -7.66 7.47 -5.37 0 0zm-67.18 -82.16l-3.82 12.09 -2.62 8.19 7.19 -4.72 11.09 -7.44 11.22 7.44 7.09 4.72 -2.56 -8.19 -3.88 -12.09 10.6 -7.66 7.5 -5.37 -9.13 -0.19 -13.59 -0.19 -4.38 -12.09 -2.87 -7.78 -2.81 7.78 -4.35 12.09 -13.56 0.19 -9.16 0.19 7.44 5.37 10.6 7.66 0 0zm-49.75 -82.66l-4.44 -12.09 -2.84 -7.75 -2.85 7.75 -4.37 12.09 -13.5 0.22 -9.22 0.22 7.5 5.34 10.65 7.69 -3.84 12.06 -2.66 8.19 7.16 -4.66 11.13 -7.4 11.15 7.4 7.16 4.66 -2.66 -8.19 -3.78 -12.06 10.63 -7.69 7.43 -5.34 -9.09 -0.22 -13.56 -0.22 0 0zm-96.35 -25.56l-4.43 -12.03 -2.85 -7.75 -2.81 7.75 -4.41 12.03 -13.5 0.31 -9.22 0.13 7.5 5.37 10.63 7.72 -3.81 12.1 -2.66 8.15 7.13 -4.65 11.15 -7.44 11.22 7.44 7.1 4.65 -2.63 -8.15 -3.81 -12.1 10.62 -7.72 7.41 -5.37 -9.09 -0.13 -13.53 -0.31 -0.01 0z"/>
 </g>
</svg>
