<?xml version="1.0" encoding="UTF-8"?>
<!DOCTYPE svg PUBLIC "-//W3C//DTD SVG 1.1//EN" "http://www.w3.org/Graphics/SVG/1.1/DTD/svg11.dtd">
<!-- Creator: CorelDRAW 2017 -->
<svg xmlns="http://www.w3.org/2000/svg" xml:space="preserve" width="1742px" height="554px" version="1.1" style="shape-rendering:geometricPrecision; text-rendering:geometricPrecision; image-rendering:optimizeQuality; fill-rule:evenodd; clip-rule:evenodd"
viewBox="0 0 1742 554"
 xmlns:xlink="http://www.w3.org/1999/xlink">
 <defs>
  <style type="text/css">
   <![CDATA[
    .fil0 {fill:#003399;fill-rule:nonzero}
   ]]>
  </style>
 </defs>
 <g id="Layer_x0020_1">
  <metadata id="CorelCorpID_0Corel-Layer"/>
  <path class="fil0" d="M3.81 326.5l0 -125.28 90.56 0 0 14.81 -74 0 0 38.35 69.32 0 0 14.71 -69.32 0 0 42.63 76.91 0 0 14.78 -93.47 0zm114.25 0l0 -90.75 13.84 0 0 13.78c3.54,-6.47 6.79,-10.69 9.79,-12.75 3,-2.06 6.28,-3.06 9.87,-3.06 5.19,0 10.47,1.66 15.81,4.94l-5.31 14.28c-3.75,-2.22 -7.5,-3.35 -11.28,-3.35 -3.34,0 -6.38,1.03 -9.03,3.03 -2.69,2.04 -4.59,4.85 -5.75,8.44 -1.69,5.47 -2.56,11.44 -2.56,17.94l0 47.5 -15.38 0 0 0zm117.69 -11.19c-5.72,4.85 -11.19,8.25 -16.47,10.25 -5.25,2 -10.91,3 -16.97,3 -9.97,0 -17.63,-2.44 -22.97,-7.31 -5.37,-4.88 -8.03,-11.09 -8.03,-18.66 0,-4.43 1,-8.5 3.03,-12.19 2.03,-3.65 4.66,-6.62 7.94,-8.84 3.28,-2.22 6.97,-3.91 11.06,-5.03 3.03,-0.81 7.59,-1.56 13.69,-2.31 12.4,-1.5 21.56,-3.25 27.43,-5.32 0.04,-2.09 0.07,-3.43 0.07,-4 0,-6.28 -1.44,-10.68 -4.35,-13.25 -3.93,-3.46 -9.78,-5.22 -17.53,-5.22 -7.22,0 -12.56,1.29 -16,3.82 -3.47,2.53 -6,7 -7.65,13.43l-15.07 -2.03c1.38,-6.43 3.63,-11.65 6.75,-15.59 3.16,-3.97 7.69,-7.03 13.6,-9.16 5.93,-2.12 12.81,-3.18 20.59,-3.18 7.75,0 14.06,0.9 18.91,2.71 4.84,1.82 8.4,4.13 10.68,6.88 2.25,2.78 3.88,6.25 4.78,10.47 0.5,2.62 0.75,7.34 0.75,14.19l0 20.5c0,14.31 0.35,23.34 1.01,27.15 0.65,3.78 1.93,7.41 3.87,10.88l-16.06 0c-1.6,-3.19 -2.63,-6.91 -3.07,-11.19l0.01 0zm-1.28 -34.34c-5.6,2.28 -13.97,4.22 -25.13,5.81 -6.34,0.91 -10.81,1.94 -13.44,3.06 -2.62,1.16 -4.62,2.82 -6.06,5 -1.44,2.19 -2.12,4.63 -2.12,7.32 0,4.09 1.53,7.53 4.65,10.25 3.1,2.75 7.66,4.09 13.63,4.09 5.93,0 11.18,-1.28 15.81,-3.88 4.63,-2.59 8,-6.12 10.16,-10.62 1.65,-3.5 2.5,-8.63 2.5,-15.41l0 -5.62 0 0zm33.22 18.47l15.21 -2.41c0.88,6.1 3.26,10.78 7.16,14 3.88,3.25 9.34,4.88 16.35,4.88 7.06,0 12.31,-1.44 15.71,-4.31 3.44,-2.88 5.13,-6.26 5.13,-10.13 0,-3.47 -1.5,-6.22 -4.53,-8.19 -2.1,-1.37 -7.35,-3.12 -15.72,-5.22 -11.28,-2.84 -19.09,-5.31 -23.44,-7.4 -4.37,-2.07 -7.69,-4.94 -9.94,-8.63 -2.25,-3.66 -3.37,-7.72 -3.37,-12.19 0,-4.03 0.94,-7.78 2.78,-11.22 1.88,-3.47 4.37,-6.31 7.56,-8.59 2.41,-1.78 5.66,-3.25 9.78,-4.5 4.16,-1.22 8.57,-1.81 13.32,-1.81 7.12,0 13.37,1 18.75,3.06 5.37,2.06 9.34,4.84 11.9,8.34 2.6,3.5 4.35,8.19 5.31,14.03l-15.03 2.07c-0.68,-4.66 -2.68,-8.32 -5.93,-10.94 -3.28,-2.63 -7.91,-3.94 -13.91,-3.94 -7.06,0 -12.09,1.19 -15.13,3.5 -3,2.34 -4.53,5.1 -4.53,8.22 0,2 0.63,3.78 1.88,5.38 1.28,1.65 3.22,3.03 5.91,4.09 1.53,0.59 6.06,1.91 13.59,3.94 10.88,2.9 18.47,5.28 22.78,7.15 4.28,1.85 7.66,4.53 10.13,8.07 2.43,3.53 3.65,7.9 3.65,13.15 0,5.13 -1.47,9.97 -4.47,14.5 -3,4.53 -7.31,8.03 -12.96,10.5 -5.63,2.47 -12,3.72 -19.13,3.72 -11.78,0 -20.78,-2.44 -26.97,-7.34 -6.19,-4.91 -10.13,-12.16 -11.84,-21.78l0 0zm93.68 27.06l0 -90.75 13.75 0 0 12.75c2.85,-4.47 6.63,-8.03 11.38,-10.75 4.72,-2.69 10.09,-4.03 16.13,-4.03 6.75,0 12.25,1.37 16.56,4.19 4.28,2.78 7.31,6.68 9.09,11.68 7.16,-10.59 16.5,-15.87 28.03,-15.87 9,0 15.91,2.47 20.75,7.47 4.85,4.97 7.28,12.65 7.28,23.03l0 62.28 -15.31 0 0 -57.16c0,-6.15 -0.5,-10.59 -1.5,-13.28 -1,-2.72 -2.78,-4.9 -5.41,-6.53 -2.62,-1.66 -5.71,-2.5 -9.25,-2.5 -6.37,0 -11.65,2.12 -15.87,6.38 -4.22,4.25 -6.34,11.03 -6.34,20.37l0 52.72 -15.38 0 0 -58.97c0,-6.81 -1.25,-11.94 -3.75,-15.38 -2.5,-3.4 -6.63,-5.12 -12.31,-5.12 -4.35,0 -8.35,1.16 -12,3.41 -3.69,2.28 -6.35,5.62 -8,10 -1.66,4.4 -2.47,10.72 -2.47,19l0 47.06 -15.38 0 0 0zm205.25 0l0 -13.31c-7.06,10.25 -16.65,15.37 -28.78,15.37 -5.37,0 -10.37,-1.03 -15,-3.06 -4.65,-2.06 -8.09,-4.65 -10.34,-7.75 -2.25,-3.09 -3.84,-6.9 -4.75,-11.4 -0.63,-3.04 -0.94,-7.82 -0.94,-14.35l0 -56.25 15.38 0 0 50.35c0,8.03 0.31,13.43 0.93,16.24 0.97,4.04 3.03,7.22 6.16,9.5 3.12,2.32 7,3.47 11.63,3.47 4.62,0 8.93,-1.18 13,-3.53 4.03,-2.37 6.9,-5.59 8.56,-9.65 1.69,-4.1 2.53,-10.01 2.53,-17.75l0 -48.63 15.38 0 0 90.75 -13.76 0 0 0zm31.72 -27.06l15.19 -2.41c0.88,6.1 3.25,10.78 7.16,14 3.9,3.25 9.34,4.88 16.34,4.88 7.09,0 12.31,-1.44 15.75,-4.31 3.41,-2.88 5.13,-6.26 5.13,-10.13 0,-3.47 -1.54,-6.22 -4.54,-8.19 -2.12,-1.37 -7.34,-3.12 -15.71,-5.22 -11.29,-2.84 -19.13,-5.31 -23.47,-7.4 -4.35,-2.07 -7.66,-4.94 -9.91,-8.63 -2.25,-3.66 -3.37,-7.72 -3.37,-12.19 0,-4.03 0.9,-7.78 2.78,-11.22 1.84,-3.47 4.37,-6.31 7.56,-8.59 2.37,-1.78 5.66,-3.25 9.78,-4.5 4.13,-1.22 8.56,-1.81 13.28,-1.81 7.13,0 13.38,1 18.75,3.06 5.38,2.06 9.38,4.84 11.94,8.34 2.56,3.5 4.31,8.19 5.28,14.03l-15.03 2.07c-0.69,-4.66 -2.66,-8.32 -5.94,-10.94 -3.28,-2.63 -7.9,-3.94 -13.87,-3.94 -7.1,0 -12.13,1.19 -15.13,3.5 -3.03,2.34 -4.53,5.1 -4.53,8.22 0,2 0.62,3.78 1.88,5.38 1.25,1.65 3.21,3.03 5.87,4.09 1.56,0.59 6.09,1.91 13.59,3.94 10.88,2.9 18.47,5.28 22.78,7.15 4.32,1.85 7.69,4.53 10.13,8.07 2.44,3.53 3.69,7.9 3.69,13.15 0,5.13 -1.5,9.97 -4.5,14.5 -3,4.53 -7.31,8.03 -12.94,10.5 -5.66,2.47 -12.03,3.72 -19.16,3.72 -11.78,0 -20.78,-2.44 -26.93,-7.34 -6.19,-4.91 -10.16,-12.16 -11.85,-21.78l0 0zm125.97 6.81l0 -34.34 -34.12 0 0 -14.35 34.12 0 0 -34.12 14.5 0 0 34.12 34.13 0 0 14.35 -34.13 0 0 34.34 -14.5 0zm120.47 20.25l0 -125.28 47.28 0c8.31,0 14.66,0.41 19.03,1.22 6.16,1.03 11.32,2.97 15.5,5.84 4.16,2.88 7.5,6.91 10.03,12.1 2.53,5.18 3.78,10.87 3.78,17.09 0,10.66 -3.37,19.66 -10.15,27.03 -6.78,7.41 -19.03,11.1 -36.75,11.1l-32.13 0 0 50.9 -16.59 0 0 0zm16.59 -65.69l32.38 0c10.72,0 18.34,-2 22.84,-6 4.5,-4 6.75,-9.59 6.75,-16.84 0,-5.22 -1.34,-9.72 -4,-13.44 -2.62,-3.75 -6.12,-6.22 -10.47,-7.41 -2.78,-0.75 -7.93,-1.09 -15.47,-1.09l-32.03 0 0 44.78 0 0zm98.04 65.69l0 -90.75 13.84 0 0 13.78c3.53,-6.47 6.78,-10.69 9.78,-12.75 2.97,-2.06 6.28,-3.06 9.88,-3.06 5.18,0 10.43,1.66 15.81,4.94l-5.31 14.28c-3.75,-2.22 -7.54,-3.35 -11.29,-3.35 -3.37,0 -6.37,1.03 -9.06,3.03 -2.69,2.04 -4.59,4.85 -5.72,8.44 -1.72,5.47 -2.56,11.44 -2.56,17.94l0 47.5 -15.38 0 0.01 0zm52.71 -45.37c0,-16.79 4.66,-29.25 14,-37.35 7.82,-6.72 17.35,-10.06 28.57,-10.06 12.47,0 22.65,4.06 30.59,12.25 7.91,8.19 11.88,19.47 11.88,33.87 0,11.69 -1.76,20.88 -5.25,27.57 -3.5,6.72 -8.63,11.9 -15.32,15.59 -6.69,3.72 -14,5.56 -21.9,5.56 -12.72,0 -22.97,-4.06 -30.82,-12.22 -7.84,-8.15 -11.75,-19.87 -11.75,-35.21zm15.82 0c0,11.62 2.53,20.34 7.59,26.12 5.06,5.78 11.47,8.66 19.16,8.66 7.62,0 13.97,-2.91 19.06,-8.72 5.06,-5.81 7.59,-14.66 7.59,-26.57 0,-11.22 -2.56,-19.71 -7.65,-25.5 -5.1,-5.78 -11.44,-8.68 -19,-8.68 -7.69,0 -14.1,2.87 -19.16,8.62 -5.06,5.75 -7.59,14.44 -7.59,26.07zm84.43 52.9l14.94 2.22c0.63,4.63 2.38,7.97 5.22,10.09 3.81,2.85 9.03,4.29 15.63,4.29 7.12,0 12.62,-1.44 16.5,-4.29 3.87,-2.84 6.49,-6.84 7.87,-11.96 0.78,-3.13 1.16,-9.72 1.09,-19.76 -6.71,7.94 -15.09,11.88 -25.12,11.88 -12.47,0 -22.13,-4.5 -28.97,-13.5 -6.81,-9 -10.25,-19.78 -10.25,-32.38 0,-8.65 1.56,-16.65 4.72,-23.97 3.12,-7.31 7.65,-12.96 13.62,-16.96 5.94,-4 12.94,-5.97 20.97,-5.97 10.72,0 19.53,4.31 26.5,12.97l0 -10.94 14.19 0 0 78.47c0,14.12 -1.44,24.12 -4.31,30.03 -2.88,5.9 -7.44,10.56 -13.69,13.97 -6.22,3.4 -13.9,5.12 -23.03,5.12 -10.81,0 -19.56,-2.44 -26.22,-7.31 -6.69,-4.88 -9.91,-12.19 -9.66,-22l0 0zm12.72 -54.53c0,11.91 2.38,20.59 7.1,26.06 4.72,5.5 10.65,8.22 17.78,8.22 7.06,0 13,-2.72 17.78,-8.16 4.78,-5.43 7.16,-13.96 7.16,-25.59 0,-11.12 -2.44,-19.5 -7.38,-25.12 -4.94,-5.66 -10.87,-8.47 -17.81,-8.47 -6.84,0 -12.66,2.78 -17.44,8.34 -4.78,5.53 -7.19,13.78 -7.19,24.72l0 0zm87.25 47l0 -90.75 13.85 0 0 13.78c3.53,-6.47 6.81,-10.69 9.78,-12.75 3,-2.06 6.28,-3.06 9.87,-3.06 5.19,0 10.47,1.66 15.82,4.94l-5.28 14.28c-3.79,-2.22 -7.54,-3.35 -11.29,-3.35 -3.37,0 -6.4,1.03 -9.06,3.03 -2.69,2.04 -4.59,4.85 -5.75,8.44 -1.69,5.47 -2.56,11.44 -2.56,17.94l0 47.5 -15.38 0 0 0zm117.69 -11.19c-5.72,4.85 -11.19,8.25 -16.47,10.25 -5.25,2 -10.9,3 -16.97,3 -9.97,0 -17.62,-2.44 -22.97,-7.31 -5.34,-4.88 -8.03,-11.09 -8.03,-18.66 0,-4.43 1,-8.5 3.03,-12.19 2.03,-3.65 4.66,-6.62 7.94,-8.84 3.28,-2.22 6.97,-3.91 11.06,-5.03 3.03,-0.81 7.6,-1.56 13.69,-2.31 12.41,-1.5 21.56,-3.25 27.44,-5.32 0.06,-2.09 0.06,-3.43 0.06,-4 0,-6.28 -1.44,-10.68 -4.34,-13.25 -3.94,-3.46 -9.78,-5.22 -17.54,-5.22 -7.21,0 -12.56,1.29 -16,3.82 -3.46,2.53 -6,7 -7.65,13.43l-15.03 -2.03c1.34,-6.43 3.59,-11.65 6.75,-15.59 3.12,-3.97 7.65,-7.03 13.56,-9.16 5.94,-2.12 12.81,-3.18 20.59,-3.18 7.75,0 14.07,0.9 18.91,2.71 4.84,1.82 8.41,4.13 10.69,6.88 2.28,2.78 3.87,6.25 4.78,10.47 0.5,2.62 0.75,7.34 0.75,14.19l0 20.5c0,14.31 0.34,23.34 1,27.15 0.66,3.78 1.94,7.41 3.87,10.88l-16.06 0c-1.59,-3.19 -2.62,-6.91 -3.06,-11.19l0 0zm-1.28 -34.34c-5.59,2.28 -13.97,4.22 -25.13,5.81 -6.34,0.91 -10.81,1.94 -13.4,3.06 -2.63,1.16 -4.66,2.82 -6.1,5 -1.4,2.19 -2.12,4.63 -2.12,7.32 0,4.09 1.56,7.53 4.66,10.25 3.09,2.75 7.65,4.09 13.62,4.09 5.94,0 11.19,-1.28 15.81,-3.88 4.63,-2.59 8,-6.12 10.16,-10.62 1.66,-3.5 2.5,-8.63 2.5,-15.41l0 -5.62 0 0zm39.37 45.53l0 -90.75 13.79 0 0 12.75c2.84,-4.47 6.62,-8.03 11.34,-10.75 4.75,-2.69 10.12,-4.03 16.15,-4.03 6.72,0 12.26,1.37 16.54,4.19 4.31,2.78 7.34,6.68 9.12,11.68 7.16,-10.59 16.5,-15.87 28,-15.87 9.03,0 15.94,2.47 20.78,7.47 4.85,4.97 7.25,12.65 7.25,23.03l0 62.28 -15.28 0 0 -57.16c0,-6.15 -0.5,-10.59 -1.5,-13.28 -1,-2.72 -2.81,-4.9 -5.4,-6.53 -2.63,-1.66 -5.72,-2.5 -9.26,-2.5 -6.37,0 -11.68,2.12 -15.9,6.38 -4.22,4.25 -6.31,11.03 -6.31,20.37l0 52.72 -15.38 0 0 -58.97c0,-6.81 -1.25,-11.94 -3.75,-15.38 -2.53,-3.4 -6.62,-5.12 -12.31,-5.12 -4.35,0 -8.35,1.16 -12,3.41 -3.69,2.28 -6.35,5.62 -8,10 -1.66,4.4 -2.47,10.72 -2.47,19l0 47.06 -15.41 0 0 0zm145.82 0l0 -90.75 13.75 0 0 12.75c2.84,-4.47 6.62,-8.03 11.37,-10.75 4.72,-2.69 10.1,-4.03 16.13,-4.03 6.75,0 12.25,1.37 16.56,4.19 4.28,2.78 7.31,6.68 9.09,11.68 7.16,-10.59 16.54,-15.87 28.04,-15.87 9,0 15.9,2.47 20.75,7.47 4.84,4.97 7.28,12.65 7.28,23.03l0 62.28 -15.32 0 0 -57.16c0,-6.15 -0.5,-10.59 -1.5,-13.28 -1,-2.72 -2.78,-4.9 -5.4,-6.53 -2.63,-1.66 -5.72,-2.5 -9.25,-2.5 -6.38,0 -11.66,2.12 -15.88,6.38 -4.22,4.25 -6.34,11.03 -6.34,20.37l0 52.72 -15.38 0 0 -58.97c0,-6.81 -1.25,-11.94 -3.75,-15.38 -2.5,-3.4 -6.62,-5.12 -12.31,-5.12 -4.31,0 -8.34,1.16 -12,3.41 -3.69,2.28 -6.34,5.62 -8,10 -1.66,4.4 -2.47,10.72 -2.47,19l0 47.06 -15.37 0 0 0zm207.9 -29.22l15.91 1.97c-2.53,9.28 -7.16,16.5 -13.94,21.63 -6.78,5.12 -15.43,7.68 -25.97,7.68 -13.28,0 -23.81,-4.09 -31.59,-12.25 -7.78,-8.18 -11.66,-19.65 -11.66,-34.4 0,-15.29 3.94,-27.13 11.79,-35.57 7.87,-8.4 18.06,-12.62 30.59,-12.62 12.12,0 22.06,4.12 29.75,12.37 7.69,8.25 11.53,19.88 11.53,34.88 0,0.91 -0.03,2.28 -0.09,4.09l-67.69 0c0.59,9.97 3.41,17.6 8.47,22.91 5.06,5.31 11.4,7.94 18.97,7.94 5.65,0 10.47,-1.47 14.43,-4.44 4,-2.97 7.16,-7.69 9.5,-14.19zm-50.5 -24.87l50.66 0c-0.66,-7.63 -2.59,-13.35 -5.81,-17.16 -4.88,-5.94 -11.25,-8.91 -19.03,-8.91 -7.1,0 -13,2.38 -17.85,7.1 -4.81,4.75 -7.47,11.06 -7.97,18.96l0 0.01z"/>
  <path class="fil0" d="M-0.13 473.66c0,-16.82 4.66,-29.25 14.04,-37.35 7.78,-6.72 17.31,-10.09 28.53,-10.09 12.46,0 22.65,4.09 30.59,12.28 7.91,8.19 11.87,19.47 11.87,33.88 0,11.68 -1.75,20.87 -5.25,27.56 -3.49,6.68 -8.59,11.9 -15.31,15.59 -6.69,3.72 -14,5.56 -21.9,5.56 -12.72,0 -22.97,-4.06 -30.82,-12.21 -7.84,-8.16 -11.75,-19.88 -11.75,-35.22zm15.82 0c0,11.62 2.53,20.34 7.59,26.12 5.09,5.78 11.47,8.66 19.16,8.66 7.62,0 13.96,-2.91 19.06,-8.72 5.06,-5.81 7.59,-14.66 7.59,-26.56 0,-11.22 -2.56,-19.75 -7.65,-25.53 -5.1,-5.79 -11.44,-8.66 -19,-8.66 -7.69,0 -14.07,2.87 -19.16,8.62 -5.06,5.75 -7.59,14.44 -7.59,26.07zm90.93 45.37l0 -78.78 -13.59 0 0 -11.97 13.59 0 0 -9.66c0,-6.09 0.53,-10.62 1.63,-13.59 1.47,-3.97 4.06,-7.22 7.81,-9.69 3.72,-2.46 8.94,-3.72 15.69,-3.72 4.31,0 9.09,0.5 14.34,1.54l-2.31 13.4c-3.19,-0.56 -6.22,-0.84 -9.06,-0.84 -4.66,0 -7.97,1 -9.91,3 -1.94,2 -2.91,5.72 -2.91,11.19l0 8.37 17.69 0 0 11.97 -17.69 0 0 78.78 -15.28 0zm127.16 -13.75l2.22 13.6c-4.35,0.9 -8.22,1.37 -11.63,1.37 -5.59,0 -9.9,-0.91 -13,-2.66 -3.06,-1.78 -5.22,-4.09 -6.5,-6.96 -1.25,-2.88 -1.87,-8.94 -1.87,-18.16l0 -52.22 -11.28 0 0 -11.97 11.28 0 0 -22.47 15.31 -9.22 0 31.69 15.47 0 0 11.97 -15.47 0 0 53.06c0,4.41 0.25,7.22 0.81,8.47 0.53,1.25 1.41,2.25 2.66,3 1.22,0.72 2.97,1.09 5.25,1.09 1.69,0 3.94,-0.18 6.75,-0.59l0 0zm15.03 13.75l0 -125.28 15.38 0 0 44.97c7.18,-8.31 16.25,-12.5 27.18,-12.5 6.72,0 12.57,1.34 17.54,4 4.93,2.63 8.5,6.31 10.62,10.97 2.13,4.69 3.22,11.44 3.22,20.34l0 57.5 -15.41 0 0 -57.5c0,-7.69 -1.65,-13.28 -5,-16.81 -3.31,-3.5 -8.03,-5.25 -14.12,-5.25 -4.56,0 -8.85,1.19 -12.88,3.56 -4,2.35 -6.87,5.56 -8.59,9.6 -1.69,4.06 -2.56,9.65 -2.56,16.75l0 49.65 -15.38 0 0 0zm159.47 -29.22l15.91 1.97c-2.53,9.28 -7.16,16.5 -13.94,21.63 -6.78,5.12 -15.44,7.68 -25.97,7.68 -13.28,0 -23.81,-4.09 -31.59,-12.28 -7.78,-8.15 -11.66,-19.62 -11.66,-34.37 0,-15.28 3.94,-27.13 11.78,-35.56 7.88,-8.44 18.06,-12.66 30.6,-12.66 12.12,0 22.06,4.16 29.75,12.41 7.68,8.25 11.53,19.87 11.53,34.87 0,0.91 -0.03,2.28 -0.1,4.09l-67.65 0c0.56,9.97 3.37,17.6 8.44,22.91 5.06,5.28 11.4,7.94 18.96,7.94 5.66,0 10.47,-1.47 14.47,-4.44 3.97,-2.97 7.13,-7.69 9.47,-14.19l0 0zm-50.5 -24.87l50.66 0c-0.66,-7.63 -2.6,-13.35 -5.79,-17.16 -4.9,-5.94 -11.28,-8.91 -19.06,-8.91 -7.06,0 -13,2.38 -17.81,7.1 -4.84,4.72 -7.5,11.06 -8,18.97l0 0zm136.66 54.09l0 -125.28 90.56 0 0 14.78 -74 0 0 38.38 69.31 0 0 14.72 -69.31 0 0 42.62 76.9 0 0 14.78 -93.46 0 0 0zm173.9 0l0 -13.31c-7.06,10.25 -16.69,15.37 -28.81,15.37 -5.34,0 -10.34,-1.03 -15,-3.09 -4.63,-2.03 -8.09,-4.62 -10.34,-7.72 -2.25,-3.09 -3.82,-6.9 -4.75,-11.4 -0.63,-3.03 -0.94,-7.82 -0.94,-14.38l0 -56.22 15.4 0 0 50.35c0,8.03 0.32,13.43 0.94,16.21 0.97,4.07 3,7.22 6.16,9.54 3.12,2.31 7,3.46 11.59,3.46 4.63,0 8.97,-1.18 13,-3.53 4.06,-2.37 6.91,-5.59 8.6,-9.65 1.68,-4.1 2.53,-10 2.53,-17.75l0 -48.63 15.37 0 0 90.75 -13.75 0 0 0zm37.69 0l0 -90.75 13.84 0 0 13.75c3.54,-6.44 6.78,-10.65 9.78,-12.72 2.97,-2.06 6.29,-3.09 9.88,-3.09 5.16,0 10.44,1.65 15.78,4.97l-5.28 14.28c-3.75,-2.22 -7.53,-3.35 -11.28,-3.35 -3.38,0 -6.38,1.01 -9.06,3.04 -2.69,2.03 -4.6,4.84 -5.72,8.43 -1.72,5.47 -2.57,11.44 -2.57,17.94l0 47.5 -15.37 0 0 0zm52.72 -45.37c0,-16.82 4.66,-29.25 14,-37.35 7.81,-6.72 17.34,-10.09 28.56,-10.09 12.47,0 22.66,4.09 30.6,12.28 7.9,8.19 11.87,19.47 11.87,33.88 0,11.68 -1.75,20.87 -5.25,27.56 -3.53,6.68 -8.63,11.9 -15.31,15.59 -6.69,3.72 -14,5.56 -21.91,5.56 -12.72,0 -23,-4.06 -30.81,-12.21 -7.84,-8.16 -11.75,-19.88 -11.75,-35.22zm15.81 0c0,11.62 2.53,20.34 7.6,26.12 5.06,5.78 11.43,8.66 19.15,8.66 7.63,0 13.97,-2.91 19.06,-8.72 5.07,-5.81 7.6,-14.66 7.6,-26.56 0,-11.22 -2.57,-19.75 -7.66,-25.53 -5.09,-5.79 -11.44,-8.66 -19,-8.66 -7.72,0 -14.09,2.87 -19.15,8.62 -5.07,5.75 -7.6,14.44 -7.6,26.07zm87.25 80.15l0 -125.53 14 0 0 11.78c3.31,-4.59 7.03,-8.06 11.22,-10.37 4.16,-2.31 9.19,-3.47 15.13,-3.47 7.75,0 14.56,2 20.5,6 5.9,3.97 10.4,9.62 13.4,16.87 3.03,7.25 4.53,15.22 4.53,23.88 0,9.28 -1.65,17.66 -5,25.09 -3.31,7.44 -8.15,13.13 -14.53,17.1 -6.34,3.97 -13.03,5.93 -20.03,5.93 -5.12,0 -9.72,-1.09 -13.81,-3.25 -4.07,-2.15 -7.41,-4.9 -10.03,-8.22l0 44.19 -15.38 0zm13.94 -79.62c0,11.65 2.34,20.31 7.09,25.87 4.72,5.6 10.44,8.38 17.16,8.38 6.84,0 12.69,-2.88 17.56,-8.66 4.88,-5.78 7.31,-14.75 7.31,-26.87 0,-11.6 -2.37,-20.25 -7.12,-26 -4.78,-5.75 -10.44,-8.63 -17.06,-8.63 -6.57,0 -12.35,3.07 -17.38,9.19 -5.06,6.13 -7.56,15.03 -7.56,26.72l0 0zm145.53 15.62l15.88 1.97c-2.51,9.28 -7.13,16.5 -13.91,21.63 -6.78,5.12 -15.44,7.68 -26,7.68 -13.25,0 -23.78,-4.09 -31.56,-12.28 -7.78,-8.15 -11.66,-19.62 -11.66,-34.37 0,-15.28 3.91,-27.13 11.78,-35.56 7.88,-8.44 18.06,-12.66 30.6,-12.66 12.12,0 22.03,4.16 29.75,12.41 7.68,8.25 11.53,19.87 11.53,34.87 0,0.91 -0.03,2.28 -0.1,4.09l-67.68 0c0.56,9.97 3.4,17.6 8.46,22.91 5.07,5.28 11.41,7.94 18.97,7.94 5.66,0 10.47,-1.47 14.44,-4.44 4,-2.97 7.16,-7.69 9.5,-14.19zm-50.5 -24.87l50.66 0c-0.69,-7.63 -2.63,-13.35 -5.82,-17.16 -4.9,-5.94 -11.25,-8.91 -19.06,-8.91 -7.06,0 -13,2.38 -17.81,7.1 -4.81,4.72 -7.47,11.06 -7.97,18.97l0 0zm144.94 42.9c-5.72,4.85 -11.19,8.25 -16.47,10.25 -5.28,2 -10.94,3 -16.97,3 -9.97,0 -17.63,-2.43 -22.97,-7.31 -5.37,-4.87 -8.03,-11.09 -8.03,-18.66 0,-4.46 1,-8.5 3.03,-12.18 2,-3.69 4.66,-6.63 7.94,-8.85 3.28,-2.22 6.97,-3.9 11.06,-5.03 3.03,-0.81 7.59,-1.59 13.69,-2.31 12.4,-1.5 21.56,-3.25 27.43,-5.31 0.03,-2.1 0.07,-3.44 0.07,-4 0,-6.29 -1.44,-10.69 -4.35,-13.25 -3.94,-3.47 -9.78,-5.22 -17.53,-5.22 -7.22,0 -12.56,1.28 -16.03,3.81 -3.44,2.53 -5.97,7 -7.63,13.44l-15.06 -2.03c1.38,-6.44 3.63,-11.66 6.75,-15.6 3.16,-3.97 7.69,-7.03 13.6,-9.15 5.93,-2.13 12.81,-3.22 20.59,-3.22 7.75,0 14.06,0.93 18.91,2.75 4.84,1.81 8.4,4.12 10.65,6.87 2.28,2.75 3.88,6.25 4.81,10.47 0.5,2.63 0.75,7.34 0.75,14.19l0 20.5c0,14.31 0.35,23.34 1,27.15 0.66,3.79 1.94,7.41 3.88,10.88l-16.06 0c-1.6,-3.19 -2.63,-6.91 -3.07,-11.19l0.01 0zm-1.28 -34.34c-5.6,2.28 -13.97,4.22 -25.13,5.81 -6.34,0.91 -10.81,1.94 -13.44,3.07 -2.62,1.15 -4.62,2.81 -6.06,5 -1.44,2.18 -2.12,4.62 -2.12,7.31 0,4.09 1.53,7.53 4.65,10.25 3.1,2.75 7.63,4.09 13.63,4.09 5.9,0 11.19,-1.28 15.81,-3.87 4.63,-2.6 8,-6.16 10.16,-10.66 1.65,-3.47 2.5,-8.59 2.5,-15.38l0 -5.62 0 0zm39.37 45.53l0 -90.75 13.85 0 0 12.91c6.65,-9.97 16.31,-14.97 28.9,-14.97 5.47,0 10.47,1 15.06,2.97 4.6,1.97 8.04,4.53 10.32,7.72 2.28,3.18 3.87,7 4.78,11.37 0.56,2.84 0.84,7.84 0.84,14.97l0 55.78 -15.37 0 0 -55.19c0,-6.28 -0.6,-10.96 -1.79,-14.06 -1.21,-3.09 -3.34,-5.59 -6.37,-7.44 -3.06,-1.84 -6.63,-2.78 -10.72,-2.78 -6.56,0 -12.22,2.1 -16.97,6.25 -4.75,4.16 -7.16,12.03 -7.16,23.66l0 49.56 -15.37 0 0 0zm230.16 -125.28l16.56 0 0 72.41c0,12.56 -1.41,22.56 -4.28,29.97 -2.84,7.4 -7.97,13.43 -15.41,18.09 -7.43,4.62 -17.18,6.97 -29.28,6.97 -11.72,0 -21.34,-2.03 -28.78,-6.1 -7.47,-4.03 -12.81,-9.87 -16,-17.56 -3.19,-7.65 -4.78,-18.12 -4.78,-31.37l0 -72.41 16.59 0 0 72.31c0,10.88 1,18.91 3.03,24.07 2,5.15 5.5,9.12 10.41,11.9 4.94,2.81 10.97,4.19 18.09,4.19 12.19,0 20.88,-2.75 26.07,-8.28 5.18,-5.53 7.78,-16.16 7.78,-31.88l0 -72.31 0 0zm42.19 125.28l0 -90.75 13.84 0 0 12.91c6.69,-9.97 16.31,-14.97 28.91,-14.97 5.46,0 10.5,1 15.06,2.97 4.59,1.97 8.03,4.53 10.31,7.72 2.28,3.18 3.88,7 4.78,11.37 0.56,2.84 0.84,7.84 0.84,14.97l0 55.78 -15.37 0 0 -55.19c0,-6.28 -0.6,-10.96 -1.78,-14.06 -1.22,-3.09 -3.32,-5.59 -6.38,-7.44 -3.06,-1.84 -6.62,-2.78 -10.72,-2.78 -6.56,0 -12.21,2.1 -16.97,6.25 -4.75,4.16 -7.12,12.03 -7.12,23.66l0 49.56 -15.41 0 0.01 0zm97.43 -107.59l0 -17.69 15.38 0 0 17.69 -15.38 0zm0 107.59l0 -90.75 15.38 0 0 90.75 -15.38 0zm33.07 -45.37c0,-16.82 4.68,-29.25 14.03,-37.35 7.78,-6.72 17.31,-10.09 28.53,-10.09 12.47,0 22.69,4.09 30.59,12.28 7.91,8.19 11.88,19.47 11.88,33.88 0,11.68 -1.75,20.87 -5.25,27.56 -3.5,6.68 -8.6,11.9 -15.28,15.59 -6.72,3.72 -14.04,5.56 -21.94,5.56 -12.69,0 -22.97,-4.06 -30.82,-12.21 -7.81,-8.16 -11.74,-19.88 -11.74,-35.22zm15.81 0c0,11.62 2.53,20.34 7.62,26.12 5.07,5.78 11.44,8.66 19.13,8.66 7.62,0 14,-2.91 19.06,-8.72 5.06,-5.81 7.6,-14.66 7.6,-26.56 0,-11.22 -2.54,-19.75 -7.66,-25.53 -5.09,-5.79 -11.41,-8.66 -19,-8.66 -7.69,0 -14.06,2.87 -19.13,8.62 -5.09,5.75 -7.62,14.44 -7.62,26.07zm87.25 45.37l0 -90.75 13.84 0 0 12.91c6.69,-9.97 16.31,-14.97 28.91,-14.97 5.47,0 10.47,1 15.06,2.97 4.59,1.97 8.03,4.53 10.31,7.72 2.28,3.18 3.88,7 4.78,11.37 0.57,2.84 0.85,7.84 0.85,14.97l0 55.78 -15.38 0 0 -55.19c0,-6.28 -0.59,-10.96 -1.78,-14.06 -1.22,-3.09 -3.34,-5.59 -6.37,-7.44 -3.07,-1.84 -6.63,-2.78 -10.72,-2.78 -6.57,0 -12.22,2.1 -16.97,6.25 -4.75,4.16 -7.16,12.03 -7.16,23.66l0 49.56 -15.37 0 0 0z"/>
  <path class="fil0" d="M94.47 83.94l16.62 4.18c-3.47,13.66 -9.75,24.1 -18.81,31.25 -9.06,7.19 -20.12,10.79 -33.22,10.79 -13.53,0 -24.56,-2.79 -33.06,-8.29 -8.47,-5.53 -14.94,-13.5 -19.38,-23.96 -4.4,-10.47 -6.62,-21.69 -6.62,-33.69 0,-13.1 2.5,-24.5 7.5,-34.25 5,-9.75 12.13,-17.16 21.34,-22.22 9.22,-5.03 19.38,-7.56 30.47,-7.56 12.6,0 23.16,3.18 31.72,9.59 8.59,6.41 14.56,15.41 17.94,27l-16.38 3.88c-2.93,-9.16 -7.15,-15.82 -12.68,-20 -5.57,-4.16 -12.54,-6.25 -20.94,-6.25 -9.66,0 -17.72,2.31 -24.22,6.93 -6.47,4.63 -11.03,10.85 -13.66,18.66 -2.62,7.81 -3.93,15.84 -3.93,24.13 0,10.68 1.53,20.03 4.65,28 3.13,7.96 7.97,13.93 14.53,17.87 6.57,3.94 13.69,5.91 21.35,5.91 9.31,0 17.22,-2.69 23.65,-8.06 6.47,-5.38 10.85,-13.35 13.13,-23.91l0 0zm29.41 -1.47c0,-16.85 4.68,-29.35 14.06,-37.47 7.84,-6.72 17.37,-10.09 28.62,-10.09 12.53,0 22.75,4.09 30.69,12.28 7.97,8.22 11.94,19.56 11.94,34 0,11.72 -1.78,20.93 -5.28,27.65 -3.53,6.72 -8.63,11.94 -15.35,15.66 -6.72,3.69 -14.06,5.56 -22,5.56 -12.75,0 -23.03,-4.09 -30.9,-12.25 -7.85,-8.18 -11.78,-19.97 -11.78,-35.34l0 0zm15.87 0c0,11.65 2.53,20.4 7.62,26.19 5.07,5.81 11.47,8.71 19.19,8.71 7.66,0 14.03,-2.9 19.13,-8.75 5.09,-5.84 7.62,-14.71 7.62,-26.65 0,-11.25 -2.56,-19.78 -7.65,-25.59 -5.13,-5.82 -11.47,-8.69 -19.1,-8.69 -7.72,0 -14.12,2.87 -19.18,8.65 -5.1,5.75 -7.63,14.47 -7.63,26.13l0 0zm81.5 7.81l0 -15.53 47.44 0 0 15.53 -47.44 0zm68.16 37.72l0 -79.03 -13.63 0 0 -12 13.63 0 0 -9.69c0,-6.12 0.56,-10.69 1.65,-13.65 1.47,-4.01 4.1,-7.22 7.85,-9.72 3.71,-2.5 8.96,-3.72 15.71,-3.72 4.35,0 9.16,0.5 14.41,1.53l-2.31 13.47c-3.22,-0.6 -6.22,-0.88 -9.1,-0.88 -4.68,0 -7.99,1 -9.93,3 -1.94,2 -2.91,5.75 -2.91,11.25l0 8.41 17.72 0 0 12 -17.72 0 0 79.03 -15.38 0 0.01 0zm104.78 0l0 -13.38c-7.1,10.29 -16.72,15.44 -28.91,15.44 -5.37,0 -10.37,-1.03 -15.03,-3.09 -4.66,-2.06 -8.12,-4.63 -10.37,-7.75 -2.25,-3.13 -3.85,-6.94 -4.75,-11.44 -0.63,-3.03 -0.94,-7.84 -0.94,-14.41l0 -56.4 15.4 0 0 50.47c0,8.06 0.32,13.5 0.97,16.31 0.97,4.06 3,7.25 6.16,9.56 3.15,2.31 7.03,3.47 11.65,3.47 4.63,0 8.97,-1.19 13.04,-3.56 4.06,-2.38 6.93,-5.6 8.62,-9.69 1.69,-4.09 2.53,-10.03 2.53,-17.78l0 -48.78 15.44 0 0 91.03 -13.81 0 0 0zm37.97 0l0 -91.03 13.9 0 0 12.94c6.69,-10 16.35,-15 28.97,-15 5.5,0 10.53,0.96 15.13,2.93 4.59,2 8.06,4.57 10.34,7.78 2.28,3.19 3.88,7.01 4.78,11.41 0.6,2.84 0.88,7.84 0.88,15l0 55.97 -15.44 0 0 -55.38c0,-6.28 -0.59,-10.99 -1.81,-14.09 -1.19,-3.12 -3.32,-5.62 -6.38,-7.47 -3.06,-1.87 -6.66,-2.78 -10.75,-2.78 -6.59,0 -12.25,2.06 -17.03,6.25 -4.78,4.16 -7.16,12.09 -7.16,23.75l0 49.72 -15.43 0 0 0zm156.72 0l0 -11.5c-5.79,9.03 -14.25,13.56 -25.47,13.56 -7.25,0 -13.91,-2 -20,-6 -6.1,-4 -10.82,-9.59 -14.16,-16.75 -3.34,-7.19 -5,-15.44 -5,-24.75 0,-9.09 1.5,-17.31 4.53,-24.72 3.03,-7.4 7.56,-13.09 13.63,-17.03 6.06,-3.94 12.84,-5.91 20.31,-5.91 5.5,0 10.37,1.16 14.69,3.47 4.28,2.32 7.75,5.32 10.43,9.03l0 -45.09 15.35 0 0 125.69 -14.32 0 0.01 0zm-48.79 -45.44c0,11.66 2.47,20.38 7.38,26.16 4.9,5.78 10.72,8.66 17.4,8.66 6.75,0 12.47,-2.75 17.19,-8.29 4.72,-5.5 7.06,-13.93 7.06,-25.24 0,-12.44 -2.4,-21.6 -7.18,-27.44 -4.82,-5.81 -10.72,-8.72 -17.75,-8.72 -6.85,0 -12.6,2.78 -17.19,8.37 -4.59,5.63 -6.91,14.44 -6.91,26.51l0 -0.01zm149.69 16.13l15.94 1.97c-2.5,9.31 -7.16,16.53 -13.97,21.68 -6.78,5.16 -15.47,7.72 -26.06,7.72 -13.31,0 -23.88,-4.09 -31.66,-12.31 -7.81,-8.19 -11.72,-19.69 -11.72,-34.5 0,-15.31 3.94,-27.22 11.85,-35.66 7.87,-8.47 18.09,-12.68 30.69,-12.68 12.15,0 22.12,4.12 29.81,12.4 7.72,8.31 11.59,19.97 11.59,35 0,0.91 -0.03,2.28 -0.09,4.13l-67.91 0c0.6,10 3.41,17.65 8.5,22.97 5.1,5.31 11.44,7.96 19.03,7.96 5.66,0 10.5,-1.5 14.5,-4.46 4,-2.97 7.16,-7.72 9.5,-14.22l0 0zm-50.65 -24.94l50.84 0c-0.69,-7.69 -2.66,-13.41 -5.84,-17.25 -4.91,-5.94 -11.28,-8.91 -19.13,-8.91 -7.09,0 -13.03,2.38 -17.87,7.1 -4.82,4.75 -7.5,11.09 -8,19.06zm145.03 54.25l0 -11.5c-5.75,9.03 -14.25,13.56 -25.44,13.56 -7.25,0 -13.94,-2 -20.03,-6 -6.1,-4 -10.81,-9.59 -14.13,-16.75 -3.34,-7.19 -5.03,-15.44 -5.03,-24.75 0,-9.09 1.53,-17.31 4.56,-24.72 3,-7.4 7.57,-13.09 13.63,-17.03 6.03,-3.94 12.81,-5.91 20.31,-5.91 5.47,0 10.38,1.16 14.66,3.47 4.28,2.32 7.78,5.32 10.47,9.03l0 -45.09 15.34 0 0 125.69 -14.34 0 0 0zm-48.78 -45.44c0,11.66 2.46,20.38 7.37,26.16 4.94,5.78 10.72,8.66 17.41,8.66 6.75,0 12.5,-2.75 17.18,-8.29 4.72,-5.5 7.1,-13.93 7.1,-25.24 0,-12.44 -2.41,-21.6 -7.22,-27.44 -4.78,-5.81 -10.72,-8.72 -17.75,-8.72 -6.84,0 -12.56,2.78 -17.19,8.37 -4.59,5.63 -6.9,14.44 -6.9,26.51l0 -0.01zm150.37 45.44l-14.31 0 0 -125.69 15.44 0 0 44.85c6.53,-8.16 14.84,-12.25 24.93,-12.25 5.63,0 10.91,1.12 15.91,3.37 5,2.25 9.12,5.44 12.34,9.53 3.25,4.07 5.78,9 7.6,14.78 1.84,5.79 2.75,11.94 2.75,18.5 0,15.63 -3.88,27.69 -11.57,36.19 -7.72,8.53 -17,12.78 -27.78,12.78 -10.75,0 -19.19,-4.5 -25.31,-13.47l0 11.41 0 0zm-0.16 -46.22c0,10.94 1.5,18.81 4.47,23.69 4.85,7.93 11.41,11.9 19.72,11.9 6.72,0 12.56,-2.93 17.47,-8.78 4.94,-5.87 7.37,-14.59 7.37,-26.18 0,-11.91 -2.34,-20.69 -7.06,-26.35 -4.72,-5.65 -10.44,-8.47 -17.09,-8.47 -6.75,0 -12.6,2.94 -17.5,8.79 -4.91,5.84 -7.38,14.34 -7.38,25.4l0 0zm82.91 81.28l-1.72 -14.5c3.38,0.94 6.31,1.38 8.85,1.38 3.4,0 6.15,-0.57 8.21,-1.69 2.07,-1.16 3.75,-2.75 5.07,-4.81 0.97,-1.57 2.53,-5.38 4.72,-11.5 0.28,-0.85 0.71,-2.1 1.34,-3.75l-34.53 -91.22 16.62 0 18.94 52.71c2.47,6.69 4.66,13.72 6.63,21.1 1.75,-7.1 3.87,-14 6.34,-20.75l19.44 -53.06 15.44 0 -34.63 92.56c-3.72,10 -6.62,16.91 -8.66,20.69 -2.75,5.06 -5.9,8.81 -9.43,11.18 -3.54,2.38 -7.78,3.54 -12.69,3.54 -2.97,0 -6.28,-0.63 -9.94,-1.88l0 0zm170.94 -48.87l2.22 13.65c-4.35,0.91 -8.22,1.35 -11.66,1.35 -5.59,0 -9.94,-0.88 -13.03,-2.66 -3.09,-1.75 -5.25,-4.09 -6.5,-6.97 -1.28,-2.87 -1.91,-8.97 -1.91,-18.22l0 -52.37 -11.31 0 0 -12 11.31 0 0 -22.56 15.35 -9.25 0 31.81 15.53 0 0 12 -15.53 0 0 53.22c0,4.41 0.28,7.25 0.84,8.5 0.53,1.25 1.41,2.25 2.66,3 1.22,0.75 2.97,1.13 5.25,1.13 1.72,0 3.97,-0.22 6.78,-0.63l0 0zm15.09 13.81l0 -125.69 15.44 0 0 45.1c7.19,-8.35 16.28,-12.5 27.25,-12.5 6.75,0 12.59,1.31 17.56,3.96 5,2.66 8.53,6.35 10.69,11.04 2.16,4.68 3.22,11.46 3.22,20.4l0 57.69 -15.44 0 0 -57.69c0,-7.72 -1.65,-13.34 -5,-16.84 -3.34,-3.53 -8.09,-5.28 -14.19,-5.28 -4.59,0 -8.87,1.18 -12.9,3.56 -4.03,2.38 -6.91,5.59 -8.63,9.62 -1.72,4.07 -2.56,9.69 -2.56,16.82l0 49.81 -15.44 0 0 0zm159.97 -29.31l15.94 1.97c-2.5,9.31 -7.16,16.53 -13.97,21.68 -6.78,5.16 -15.5,7.72 -26.06,7.72 -13.31,0 -23.88,-4.09 -31.69,-12.31 -7.78,-8.19 -11.69,-19.69 -11.69,-34.5 0,-15.31 3.94,-27.22 11.85,-35.66 7.87,-8.47 18.09,-12.68 30.68,-12.68 12.16,0 22.13,4.12 29.82,12.4 7.71,8.31 11.59,19.97 11.59,35 0,0.91 -0.03,2.28 -0.09,4.13l-67.91 0c0.59,10 3.41,17.65 8.5,22.97 5.09,5.31 11.44,7.96 19.03,7.96 5.66,0 10.47,-1.5 14.5,-4.46 4,-2.97 7.16,-7.72 9.5,-14.22l0 0zm-50.66 -24.94l50.82 0c-0.66,-7.69 -2.63,-13.41 -5.82,-17.25 -4.9,-5.94 -11.28,-8.91 -19.12,-8.91 -7.09,0 -13.03,2.38 -17.88,7.1 -4.81,4.75 -7.5,11.09 -8,19.06z"/>
 </g>
</svg>
